<svg viewBox="0 0 330 200" xmlns="http://www.w3.org/2000/svg"><g><g><g><g><g><line x1="40" y1="177" x2="35" y2="177" style="visibility: inherit;" fill="rgb(0, 0, 0)" stroke="rgb(204, 204, 204)" stroke-width="1px"></line><line x1="40" y1="164.35714285714286" x2="35" y2="164.35714285714286" style="visibility: inherit;" fill="rgb(0, 0, 0)" stroke="rgb(204, 204, 204)" stroke-width="1px"></line><line x1="40" y1="151.71428571428572" x2="35" y2="151.71428571428572" style="visibility: inherit;" fill="rgb(0, 0, 0)" stroke="rgb(204, 204, 204)" stroke-width="1px"></line><line x1="40" y1="139.07142857142856" x2="35" y2="139.07142857142856" style="visibility: inherit;" fill="rgb(0, 0, 0)" stroke="rgb(204, 204, 204)" stroke-width="1px"></line><line x1="40" y1="126.42857142857143" x2="35" y2="126.42857142857143" style="visibility: inherit;" fill="rgb(0, 0, 0)" stroke="rgb(204, 204, 204)" stroke-width="1px"></line><line x1="40" y1="113.78571428571428" x2="35" y2="113.78571428571428" style="visibility: inherit;" fill="rgb(0, 0, 0)" stroke="rgb(204, 204, 204)" stroke-width="1px"></line><line x1="40" y1="101.14285714285714" x2="35" y2="101.14285714285714" style="visibility: inherit;" fill="rgb(0, 0, 0)" stroke="rgb(204, 204, 204)" stroke-width="1px"></line><line x1="40" y1="88.5" x2="35" y2="88.5" style="visibility: inherit;" fill="rgb(0, 0, 0)" stroke="rgb(204, 204, 204)" stroke-width="1px"></line><line x1="40" y1="75.85714285714286" x2="35" y2="75.85714285714286" style="visibility: inherit;" fill="rgb(0, 0, 0)" stroke="rgb(204, 204, 204)" stroke-width="1px"></line><line x1="40" y1="63.21428571428571" x2="35" y2="63.21428571428571" style="visibility: inherit;" fill="rgb(0, 0, 0)" stroke="rgb(204, 204, 204)" stroke-width="1px"></line><line x1="40" y1="50.57142857142857" x2="35" y2="50.57142857142857" style="visibility: inherit;" fill="rgb(0, 0, 0)" stroke="rgb(204, 204, 204)" stroke-width="1px"></line><line x1="40" y1="37.92857142857143" x2="35" y2="37.92857142857143" style="visibility: inherit;" fill="rgb(0, 0, 0)" stroke="rgb(204, 204, 204)" stroke-width="1px"></line><line x1="40" y1="25.285714285714295" x2="35" y2="25.285714285714295" style="visibility: inherit;" fill="rgb(0, 0, 0)" stroke="rgb(204, 204, 204)" stroke-width="1px"></line><line x1="40" y1="12.642857142857137" x2="35" y2="12.642857142857137" style="visibility: inherit;" fill="rgb(0, 0, 0)" stroke="rgb(204, 204, 204)" stroke-width="1px"></line><line x1="40" y1="0" x2="35" y2="0" style="visibility: inherit;" fill="rgb(0, 0, 0)" stroke="rgb(204, 204, 204)" stroke-width="1px"></line></g><g transform="translate(30, 0)"><text x="0" y="177" dx="0em" dy="0.3em" style="text-anchor: end; visibility: hidden; font-family: Roboto, sans-serif; font-size: 12px; font-weight: 200;" fill="rgb(255, 255, 255)" stroke="none" stroke-width="1px">20</text><text x="0" y="164.35714285714286" dx="0em" dy="0.3em" style="text-anchor: end; visibility: inherit; font-family: Roboto, sans-serif; font-size: 12px; font-weight: 200;" fill="rgb(255, 255, 255)" stroke="none" stroke-width="1px">40</text><text x="0" y="151.71428571428572" dx="0em" dy="0.3em" style="text-anchor: end; visibility: hidden; font-family: Roboto, sans-serif; font-size: 12px; font-weight: 200;" fill="rgb(255, 255, 255)" stroke="none" stroke-width="1px">60</text><text x="0" y="139.07142857142856" dx="0em" dy="0.3em" style="text-anchor: end; visibility: inherit; font-family: Roboto, sans-serif; font-size: 12px; font-weight: 200;" fill="rgb(255, 255, 255)" stroke="none" stroke-width="1px">80</text><text x="0" y="126.42857142857143" dx="0em" dy="0.3em" style="text-anchor: end; visibility: hidden; font-family: Roboto, sans-serif; font-size: 12px; font-weight: 200;" fill="rgb(255, 255, 255)" stroke="none" stroke-width="1px">100</text><text x="0" y="113.78571428571428" dx="0em" dy="0.3em" style="text-anchor: end; visibility: inherit; font-family: Roboto, sans-serif; font-size: 12px; font-weight: 200;" fill="rgb(255, 255, 255)" stroke="none" stroke-width="1px">120</text><text x="0" y="101.14285714285714" dx="0em" dy="0.3em" style="text-anchor: end; visibility: hidden; font-family: Roboto, sans-serif; font-size: 12px; font-weight: 200;" fill="rgb(255, 255, 255)" stroke="none" stroke-width="1px">140</text><text x="0" y="88.5" dx="0em" dy="0.3em" style="text-anchor: end; visibility: inherit; font-family: Roboto, sans-serif; font-size: 12px; font-weight: 200;" fill="rgb(255, 255, 255)" stroke="none" stroke-width="1px">160</text><text x="0" y="75.85714285714286" dx="0em" dy="0.3em" style="text-anchor: end; visibility: hidden; font-family: Roboto, sans-serif; font-size: 12px; font-weight: 200;" fill="rgb(255, 255, 255)" stroke="none" stroke-width="1px">180</text><text x="0" y="63.21428571428571" dx="0em" dy="0.3em" style="text-anchor: end; visibility: inherit; font-family: Roboto, sans-serif; font-size: 12px; font-weight: 200;" fill="rgb(255, 255, 255)" stroke="none" stroke-width="1px">200</text><text x="0" y="50.57142857142857" dx="0em" dy="0.3em" style="text-anchor: end; visibility: hidden; font-family: Roboto, sans-serif; font-size: 12px; font-weight: 200;" fill="rgb(255, 255, 255)" stroke="none" stroke-width="1px">220</text><text x="0" y="37.92857142857143" dx="0em" dy="0.3em" style="text-anchor: end; visibility: inherit; font-family: Roboto, sans-serif; font-size: 12px; font-weight: 200;" fill="rgb(255, 255, 255)" stroke="none" stroke-width="1px">240</text><text x="0" y="25.285714285714295" dx="0em" dy="0.3em" style="text-anchor: end; visibility: hidden; font-family: Roboto, sans-serif; font-size: 12px; font-weight: 200;" fill="rgb(255, 255, 255)" stroke="none" stroke-width="1px">260</text><text x="0" y="12.642857142857137" dx="0em" dy="0.3em" style="text-anchor: end; visibility: inherit; font-family: Roboto, sans-serif; font-size: 12px; font-weight: 200;" fill="rgb(255, 255, 255)" stroke="none" stroke-width="1px">280</text><text x="0" y="0" dx="0em" dy="0.3em" style="text-anchor: end; visibility: hidden; font-family: Roboto, sans-serif; font-size: 12px; font-weight: 200;" fill="rgb(255, 255, 255)" stroke="none" stroke-width="1px">300</text></g><line x1="40" y1="0" x2="40" y2="177" fill="rgb(0, 0, 0)" stroke="rgb(204, 204, 204)" stroke-width="1px"></line></g></g><g transform="translate(40, 0)" clip-path="url(#clip_0)"><clipPath id="clip_0"><rect width="290" height="177"></rect></clipPath><g><g><g><line x1="0" y1="0" x2="0" y2="177" fill="rgb(0, 0, 0)" stroke="rgb(189, 189, 189)" stroke-width="1px" opacity="0.25"></line><line x1="32.22222222222222" y1="0" x2="32.22222222222222" y2="177" fill="rgb(0, 0, 0)" stroke="rgb(189, 189, 189)" stroke-width="1px" opacity="0.25"></line><line x1="64.44444444444444" y1="0" x2="64.44444444444444" y2="177" fill="rgb(0, 0, 0)" stroke="rgb(189, 189, 189)" stroke-width="1px" opacity="0.25"></line><line x1="96.66666666666666" y1="0" x2="96.66666666666666" y2="177" fill="rgb(0, 0, 0)" stroke="rgb(189, 189, 189)" stroke-width="1px" opacity="0.25"></line><line x1="128.88888888888889" y1="0" x2="128.88888888888889" y2="177" fill="rgb(0, 0, 0)" stroke="rgb(189, 189, 189)" stroke-width="1px" opacity="0.25"></line><line x1="161.11111111111111" y1="0" x2="161.11111111111111" y2="177" fill="rgb(0, 0, 0)" stroke="rgb(189, 189, 189)" stroke-width="1px" opacity="0.25"></line><line x1="193.33333333333331" y1="0" x2="193.33333333333331" y2="177" fill="rgb(0, 0, 0)" stroke="rgb(189, 189, 189)" stroke-width="1px" opacity="0.25"></line><line x1="225.55555555555557" y1="0" x2="225.55555555555557" y2="177" fill="rgb(0, 0, 0)" stroke="rgb(189, 189, 189)" stroke-width="1px" opacity="0.25"></line><line x1="257.77777777777777" y1="0" x2="257.77777777777777" y2="177" fill="rgb(0, 0, 0)" stroke="rgb(189, 189, 189)" stroke-width="1px" opacity="0.25"></line><line x1="290" y1="0" x2="290" y2="177" fill="rgb(0, 0, 0)" stroke="rgb(189, 189, 189)" stroke-width="1px" opacity="0.25"></line></g><g><line x1="0" y1="177" x2="290" y2="177" fill="rgb(0, 0, 0)" stroke="rgb(189, 189, 189)" stroke-width="1px" opacity="0.25"></line><line x1="0" y1="164.35714285714286" x2="290" y2="164.35714285714286" fill="rgb(0, 0, 0)" stroke="rgb(189, 189, 189)" stroke-width="1px" opacity="0.25"></line><line x1="0" y1="151.71428571428572" x2="290" y2="151.71428571428572" fill="rgb(0, 0, 0)" stroke="rgb(189, 189, 189)" stroke-width="1px" opacity="0.25"></line><line x1="0" y1="139.07142857142856" x2="290" y2="139.07142857142856" fill="rgb(0, 0, 0)" stroke="rgb(189, 189, 189)" stroke-width="1px" opacity="0.25"></line><line x1="0" y1="126.42857142857143" x2="290" y2="126.42857142857143" fill="rgb(0, 0, 0)" stroke="rgb(189, 189, 189)" stroke-width="1px" opacity="0.25"></line><line x1="0" y1="113.78571428571428" x2="290" y2="113.78571428571428" fill="rgb(0, 0, 0)" stroke="rgb(189, 189, 189)" stroke-width="1px" opacity="0.25"></line><line x1="0" y1="101.14285714285714" x2="290" y2="101.14285714285714" fill="rgb(0, 0, 0)" stroke="rgb(189, 189, 189)" stroke-width="1px" opacity="0.25"></line><line x1="0" y1="88.5" x2="290" y2="88.5" fill="rgb(0, 0, 0)" stroke="rgb(189, 189, 189)" stroke-width="1px" opacity="0.25"></line><line x1="0" y1="75.85714285714286" x2="290" y2="75.85714285714286" fill="rgb(0, 0, 0)" stroke="rgb(189, 189, 189)" stroke-width="1px" opacity="0.25"></line><line x1="0" y1="63.21428571428571" x2="290" y2="63.21428571428571" fill="rgb(0, 0, 0)" stroke="rgb(189, 189, 189)" stroke-width="1px" opacity="0.25"></line><line x1="0" y1="50.57142857142857" x2="290" y2="50.57142857142857" fill="rgb(0, 0, 0)" stroke="rgb(189, 189, 189)" stroke-width="1px" opacity="0.25"></line><line x1="0" y1="37.92857142857143" x2="290" y2="37.92857142857143" fill="rgb(0, 0, 0)" stroke="rgb(189, 189, 189)" stroke-width="1px" opacity="0.25"></line><line x1="0" y1="25.285714285714295" x2="290" y2="25.285714285714295" fill="rgb(0, 0, 0)" stroke="rgb(189, 189, 189)" stroke-width="1px" opacity="0.25"></line><line x1="0" y1="12.642857142857137" x2="290" y2="12.642857142857137" fill="rgb(0, 0, 0)" stroke="rgb(189, 189, 189)" stroke-width="1px" opacity="0.25"></line><line x1="0" y1="0" x2="290" y2="0" fill="rgb(0, 0, 0)" stroke="rgb(189, 189, 189)" stroke-width="1px" opacity="0.25"></line></g></g></g><g><g><line x1="0" y1="189.64285714285714" x2="290" y2="189.64285714285714" fill="rgb(0, 0, 0)" stroke="rgb(153, 153, 153)" stroke-width="1.5px"></line></g></g><g><g><line x1="32.22222222222222" y1="0" x2="32.22222222222222" y2="177" fill="rgb(0, 0, 0)" stroke="rgb(153, 153, 153)" stroke-width="1.5px"></line></g></g><g><g><g><g><g><path stroke="rgb(0, 119, 187)" stroke-width="2px" d="M32.22222222222222,189.64285714285714L33.833333333333336,176.12685304028648L35.44444444444444,170.138024712443L37.05555555555555,169.47134077473848L38.666666666666664,168.08667602233683L40.27777777777778,168.10263571144523L41.888888888888886,166.27513785439982L43.5,164.85960691991585L45.111111111111114,163.90049878321432L46.72222222222223,160.21745770745227L48.33333333333333,160.23741816031463L49.94444444444444,156.34938734505653L51.55555555555556,154.7283867735248L53.166666666666664,152.44884626140845L54.77777777777778,148.09208846350262L56.38888888888889,144.5637433302802L58,138.9598828574123L59.61111111111111,134.21490434016494L61.22222222222222,124.47997789113666L62.833333333333336,113.38736765722116L64.44444444444444,109.0988560148836L66.05555555555556,99.4659453507616L67.66666666666667,94.77862957598063L69.27777777777779,90.35808459913036L70.88888888888889,79.46007599299249L72.5,71.41173063213489L74.1111111111111,56.673250014035496L75.72222222222223,48.515416272982414L77.33333333333333,47.97239396416972L78.94444444444444,43.87900613047321L80.55555555555556,44.13613043183755L82.16666666666667,41.539321681232956L83.77777777777777,37.95584828282974L85.38888888888889,32.88020913293832L87,27.683008944060607L88.61111111111111,28.0187184209593L90.22222222222223,26.627147181658955L91.83333333333333,23.16501501558733L93.44444444444446,26.165107627050602L95.05555555555556,24.308847201399683L96.66666666666666,21.402334729292683L98.27777777777779,27.22138532000759L99.88888888888889,28.110917369542356L101.5,31.888794205513253L103.11111111111111,34.74973227747672L104.72222222222221,38.21859712688653L106.33333333333333,31.07821572738537L107.94444444444444,33.74755831658325L109.55555555555556,32.11259166978982L111.16666666666667,32.34279955666787L112.77777777777779,30.05349031574186L114.38888888888889,26.922552258283666L116,28.553643943038068L117.61111111111111,34.26325779440026L119.22222222222221,29.837814906129545L120.83333333333334,25.918263458882716L122.44444444444444,21.81928880740177L124.05555555555554,15.175113672274993L125.66666666666667,20.37491291248928L127.27777777777777,27.843934542101927L128.88888888888889,30.3277737763215L130.5,28.257852140723116L132.11111111111111,26.783267192637L133.72222222222223,24.831458772264654L135.33333333333334,33.208261903635076L136.94444444444443,48.920085250614406L138.55555555555557,59.05012180728133L140.16666666666666,64.9865443586085L141.77777777777777,83.73247008963497L143.38888888888889,106.63926853972545L145,120.70953162641618L146.61111111111111,133.6778336859763L148.2222222222222,126.63632947750725L149.83333333333334,118.59581166355512L151.44444444444446,113.2076306269347L153.05555555555557,106.12117775883381L154.66666666666666,86.93556379815743L156.27777777777777,79.96298036437857L157.88888888888889,75.25095980153033L159.5,63.52570398935149L161.11111111111111,70.91099305052357L162.72222222222223,75.07666571556804L164.33333333333334,75.45207085791226L165.94444444444443,74.03374251474737L167.55555555555554,69.46068805732776L169.16666666666669,68.07216982292204L170.77777777777777,76.56443154550406L172.38888888888889,77.30305722965315L174,81.5567916349808L175.6111111111111,70.49520463273933L177.22222222222223,52.73759636885954L178.83333333333334,42.72275967329676L180.44444444444446,26.442801747755972L182.05555555555554,25.979966762939316L183.66666666666666,16.187250251681036L185.27777777777777,13.229593934141977L186.8888888888889,16.307329332374128L188.5,13.900911576475256L190.11111111111111,14.358543859250116L191.72222222222223,17.63959836144852L193.33333333333331,17.41343291474857L194.94444444444446,12.02083148608407L196.55555555555557,6.5247271544155145L198.16666666666666,10.238795904814483L199.77777777777777,16.189294606574492L201.38888888888889,9.394974294636684L203,2.251223729962815L204.61111111111111,12.142675243139527L206.22222222222223,11.275690551505916L207.83333333333334,14.28538329016694L209.44444444444443,24.665585573639785L211.05555555555554,16.187534589161544L212.66666666666666,10.994508319763671L214.2777777777778,11.175944145039006L215.88888888888889,19.04246478937413L217.5,37.34080883403881L219.11111111111111,34.08648452876454L220.7222222222222,34.5284473971206L222.33333333333334,31.198000096335967L223.94444444444446,28.602984846096785L225.55555555555557,21.4780641882105L227.16666666666666,22.184392877811888L228.77777777777777,19.28058916558224L230.38888888888889,20.959471489025706L232,21.466140962263065L233.61111111111111,22.781571217634063L235.22222222222223,16.114074697307572L236.83333333333334,9.741775550457637L238.44444444444443,5.268551353223768L240.05555555555554,10.946604401150227L241.66666666666669,15.744150515620383L243.27777777777777,21.399048532551653L244.88888888888889,19.99528317575308L246.5,19.494382647848617L248.1111111111111,15.226513142350333L249.72222222222223,21.5233807029674L251.33333333333334,21.485884021320075L252.94444444444446,18.150955897585572L254.55555555555554,7.540216395694184L256.1666666666667,8.96935501354652L257.77777777777777,1.9427543219532661L259.3888888888889,5.901669656857803L261,8.044386891073374L262.6111111111111,12.510964410034678L264.22222222222223,16.13153208491589L265.8333333333333,6.52579037085746L267.44444444444446,8.970086038920714L269.05555555555554,10.836182046762021L270.6666666666667,9.467726291743034L272.27777777777777,2.916909055598268L273.88888888888886,11.153903193543135" style="fill: none;" fill="none"></path></g></g></g></g><g opacity="0.2"><g><g><g><path stroke="rgb(0, 119, 187)" stroke-width="2px" d="M32.22222222222222,189.64285714285714L33.833333333333336,168.01725057874407L35.44444444444444,164.38874951771328L37.05555555555555,168.68732046399796L38.666666666666664,166.2788577216012L40.27777777777778,168.12471370697023L41.888888888888886,163.66178667885916L43.5,162.79574922834124L45.111111111111114,162.48600057874407L46.72222222222223,154.7485709462847L48.33333333333333,160.2671777997698L49.94444444444444,150.53849961417063L51.55555555555556,152.30217876434327L53.166666666666664,149.03400135040283L54.77777777777778,141.56207297188894L56.38888888888889,139.2737140927996L58,130.5564635140555L59.61111111111111,127.09864131382534L61.22222222222222,109.87907123565674L62.833333333333336,96.74946621486119L64.44444444444444,102.66632374354771L66.05555555555556,85.01689632960728L67.66666666666667,87.74774845668247L69.27777777777779,83.72731949942451L70.88888888888889,63.113140542166576L72.5,59.33924691336496L74.1111111111111,34.56556679861885L75.72222222222223,36.2786781855992L77.33333333333333,47.157861001150955L78.94444444444444,37.73892664228166L80.55555555555556,44.52181679861886L82.16666666666667,37.644109072004035L83.77777777777777,32.58063861301967L85.38888888888889,25.26675077165876L87,19.88720888410295L88.61111111111111,28.522282627650664L90.22222222222223,24.539790344238277L91.83333333333333,17.971816798618853L93.44444444444446,30.665246527535576L95.05555555555556,21.52445656912667L96.66666666666666,17.042566026960102L98.27777777777779,35.94996119907925L99.88888888888889,29.445215443202436L101.5,37.55560945783342L103.11111111111111,39.041139384678424L104.72222222222221,43.42189440046038L106.33333333333333,20.367643628801616L107.94444444444444,37.751572200230186L109.55555555555556,29.660141699654712L111.16666666666667,32.68811138698033L112.77777777777779,26.619526454380576L114.38888888888889,22.226145172119132L116,31.000281470162538L117.61111111111111,42.82767857142858L119.22222222222221,23.199650573730473L120.83333333333334,20.038936288016178L122.44444444444444,15.670826830182756L124.05555555555554,5.208850969587049L125.66666666666667,28.174611772809712L127.27777777777777,39.04746698651994L128.88888888888889,34.05353262765066L130.5,25.15296968732562L132.11111111111111,24.57138977050782L133.72222222222223,21.9037461417062L135.33333333333334,45.773466600690575L136.94444444444443,72.4878202710833L138.55555555555557,74.24517664228168L140.16666666666666,73.8911781855992L141.77777777777777,111.85135868617466L143.38888888888889,140.99946621486117L145,141.81492625645228L146.61111111111111,153.1302867753165L148.2222222222222,116.07407316480365L149.83333333333334,106.53503494262695L151.44444444444446,105.12535907200406L153.05555555555557,95.49149845668246L154.66666666666666,58.157142857142865L156.27777777777777,69.50410521371025L157.88888888888889,68.18292895725796L159.5,45.93782027108328L161.11111111111111,81.98892664228167L162.72222222222223,81.32517471313476L164.33333333333334,76.01517857142858L165.94444444444443,71.90625L167.55555555555554,62.601106371198384L169.16666666666669,65.98939247131348L170.77777777777777,89.3028241293771L172.38888888888889,78.41099575587681L174,87.93739324297225L175.6111111111111,53.902824129377095L177.22222222222223,26.101183973039902L178.83333333333334,27.700504629952572L180.44444444444446,2.022864859444755L182.05555555555554,25.285714285714295L183.66666666666666,1.4981754847935185L185.27777777777777,8.793109457833427L186.8888888888889,20.923932429722374L188.5,10.291284942626945L190.11111111111111,15.044992283412386L191.72222222222223,22.561180114746094L193.33333333333331,17.074184744698666L194.94444444444446,3.9319293430873294L196.55555555555557,-1.719429343087337L198.16666666666666,15.809899030412955L199.77777777777777,25.11504265921457L201.38888888888889,-0.7965061732700927L203,-8.46440211704799L204.61111111111111,26.979852512904575L206.22222222222223,9.975213514055518L207.83333333333334,18.799922398158486L209.44444444444443,40.23588899884905L211.05555555555554,3.4704581124441978L212.66666666666666,3.204968915666846L214.2777777777778,11.448097882952018L215.88888888888889,30.842245755876824L217.5,64.78832490103585L219.11111111111111,29.204998070853105L220.7222222222222,35.19139169965471L222.33333333333334,26.202329145159034L223.94444444444446,24.710461970738L225.55555555555557,10.790683201381144L227.16666666666666,23.243885912214004L228.77777777777777,14.92488359723772L230.38888888888889,23.477794974190854L232,22.226145172119132L233.61111111111111,24.75471660069057L235.22222222222223,6.112829916817798L236.83333333333334,0.18332683018275164L238.44444444444443,-1.4412849426269374L240.05555555555554,19.463683973039906L241.66666666666669,22.940469687325606L243.27777777777777,29.88139555794853L244.88888888888889,17.889635140555253L246.5,18.743031855991905L248.1111111111111,8.82470888410295L249.72222222222223,30.968682043892994L251.33333333333334,21.42963899884906L252.94444444444446,13.148563711983822L254.55555555555554,-8.375892857142848L256.1666666666667,11.113062940325056L257.77777777777777,-8.597146715436645L259.3888888888889,11.840042659214559L261,11.25846274239676L262.6111111111111,19.210830688476562L264.22222222222223,21.562383597237716L265.8333333333333,-7.882822200230192L267.44444444444446,12.636529541015634L269.05555555555554,13.63532605852399L270.6666666666667,7.4150426592145555L272.27777777777777,-6.909316798618872L273.88888888888886,23.509394400460376" style="fill: none;" fill="none"></path></g></g></g></g></g></g><g transform="translate(40, 177)" clip-path="url(#clip_1)"><clipPath id="clip_1"><rect width="290" height="23"></rect></clipPath><g><g><line x1="0" y1="0" x2="0" y2="5" style="visibility: inherit;" fill="rgb(0, 0, 0)" stroke="rgb(204, 204, 204)" stroke-width="1px"></line><line x1="32.22222222222222" y1="0" x2="32.22222222222222" y2="5" style="visibility: inherit;" fill="rgb(0, 0, 0)" stroke="rgb(204, 204, 204)" stroke-width="1px"></line><line x1="64.44444444444444" y1="0" x2="64.44444444444444" y2="5" style="visibility: inherit;" fill="rgb(0, 0, 0)" stroke="rgb(204, 204, 204)" stroke-width="1px"></line><line x1="96.66666666666666" y1="0" x2="96.66666666666666" y2="5" style="visibility: inherit;" fill="rgb(0, 0, 0)" stroke="rgb(204, 204, 204)" stroke-width="1px"></line><line x1="128.88888888888889" y1="0" x2="128.88888888888889" y2="5" style="visibility: inherit;" fill="rgb(0, 0, 0)" stroke="rgb(204, 204, 204)" stroke-width="1px"></line><line x1="161.11111111111111" y1="0" x2="161.11111111111111" y2="5" style="visibility: inherit;" fill="rgb(0, 0, 0)" stroke="rgb(204, 204, 204)" stroke-width="1px"></line><line x1="193.33333333333331" y1="0" x2="193.33333333333331" y2="5" style="visibility: inherit;" fill="rgb(0, 0, 0)" stroke="rgb(204, 204, 204)" stroke-width="1px"></line><line x1="225.55555555555557" y1="0" x2="225.55555555555557" y2="5" style="visibility: inherit;" fill="rgb(0, 0, 0)" stroke="rgb(204, 204, 204)" stroke-width="1px"></line><line x1="257.77777777777777" y1="0" x2="257.77777777777777" y2="5" style="visibility: inherit;" fill="rgb(0, 0, 0)" stroke="rgb(204, 204, 204)" stroke-width="1px"></line><line x1="290" y1="0" x2="290" y2="5" style="visibility: inherit;" fill="rgb(0, 0, 0)" stroke="rgb(204, 204, 204)" stroke-width="1px"></line></g><g transform="translate(0, 8)"><text x="0" y="0" dx="0em" dy="0.95em" style="text-anchor: middle; visibility: hidden; font-family: Roboto, sans-serif; font-size: 12px; font-weight: 200;" fill="rgb(255, 255, 255)" stroke="none" stroke-width="1px">-200k</text><text x="32.22222222222222" y="0" dx="0em" dy="0.95em" style="text-anchor: middle; visibility: inherit; font-family: Roboto, sans-serif; font-size: 12px; font-weight: 200;" fill="rgb(255, 255, 255)" stroke="none" stroke-width="1px">0</text><text x="64.44444444444444" y="0" dx="0em" dy="0.95em" style="text-anchor: middle; visibility: inherit; font-family: Roboto, sans-serif; font-size: 12px; font-weight: 200;" fill="rgb(255, 255, 255)" stroke="none" stroke-width="1px">200k</text><text x="96.66666666666666" y="0" dx="0em" dy="0.95em" style="text-anchor: middle; visibility: inherit; font-family: Roboto, sans-serif; font-size: 12px; font-weight: 200;" fill="rgb(255, 255, 255)" stroke="none" stroke-width="1px">400k</text><text x="128.88888888888889" y="0" dx="0em" dy="0.95em" style="text-anchor: middle; visibility: inherit; font-family: Roboto, sans-serif; font-size: 12px; font-weight: 200;" fill="rgb(255, 255, 255)" stroke="none" stroke-width="1px">600k</text><text x="161.11111111111111" y="0" dx="0em" dy="0.95em" style="text-anchor: middle; visibility: inherit; font-family: Roboto, sans-serif; font-size: 12px; font-weight: 200;" fill="rgb(255, 255, 255)" stroke="none" stroke-width="1px">800k</text><text x="193.33333333333331" y="0" dx="0em" dy="0.95em" style="text-anchor: middle; visibility: inherit; font-family: Roboto, sans-serif; font-size: 12px; font-weight: 200;" fill="rgb(255, 255, 255)" stroke="none" stroke-width="1px">1M</text><text x="225.55555555555557" y="0" dx="0em" dy="0.95em" style="text-anchor: middle; visibility: inherit; font-family: Roboto, sans-serif; font-size: 12px; font-weight: 200;" fill="rgb(255, 255, 255)" stroke="none" stroke-width="1px">1.2M</text><text x="257.77777777777777" y="0" dx="0em" dy="0.95em" style="text-anchor: middle; visibility: inherit; font-family: Roboto, sans-serif; font-size: 12px; font-weight: 200;" fill="rgb(255, 255, 255)" stroke="none" stroke-width="1px">1.4M</text><text x="290" y="0" dx="0em" dy="0.95em" style="text-anchor: middle; visibility: hidden; font-family: Roboto, sans-serif; font-size: 12px; font-weight: 200;" fill="rgb(255, 255, 255)" stroke="none" stroke-width="1px">1.6M</text></g><line x1="0" y1="0" x2="290" y2="0" fill="rgb(0, 0, 0)" stroke="rgb(204, 204, 204)" stroke-width="1px"></line></g></g></g></g></svg>