<svg viewBox="0 0 330 200" xmlns="http://www.w3.org/2000/svg"><g><g><g><g><g><line x1="30" y1="177" x2="25" y2="177" style="visibility: inherit;" fill="rgb(0, 0, 0)" stroke="rgb(204, 204, 204)" stroke-width="1px"></line><line x1="30" y1="162.25" x2="25" y2="162.25" style="visibility: inherit;" fill="rgb(0, 0, 0)" stroke="rgb(204, 204, 204)" stroke-width="1px"></line><line x1="30" y1="147.5" x2="25" y2="147.5" style="visibility: inherit;" fill="rgb(0, 0, 0)" stroke="rgb(204, 204, 204)" stroke-width="1px"></line><line x1="30" y1="132.75" x2="25" y2="132.75" style="visibility: inherit;" fill="rgb(0, 0, 0)" stroke="rgb(204, 204, 204)" stroke-width="1px"></line><line x1="30" y1="118.00000000000001" x2="25" y2="118.00000000000001" style="visibility: inherit;" fill="rgb(0, 0, 0)" stroke="rgb(204, 204, 204)" stroke-width="1px"></line><line x1="30" y1="103.24999999999999" x2="25" y2="103.24999999999999" style="visibility: inherit;" fill="rgb(0, 0, 0)" stroke="rgb(204, 204, 204)" stroke-width="1px"></line><line x1="30" y1="88.5" x2="25" y2="88.5" style="visibility: inherit;" fill="rgb(0, 0, 0)" stroke="rgb(204, 204, 204)" stroke-width="1px"></line><line x1="30" y1="73.75" x2="25" y2="73.75" style="visibility: inherit;" fill="rgb(0, 0, 0)" stroke="rgb(204, 204, 204)" stroke-width="1px"></line><line x1="30" y1="59.00000000000001" x2="25" y2="59.00000000000001" style="visibility: inherit;" fill="rgb(0, 0, 0)" stroke="rgb(204, 204, 204)" stroke-width="1px"></line><line x1="30" y1="44.25" x2="25" y2="44.25" style="visibility: inherit;" fill="rgb(0, 0, 0)" stroke="rgb(204, 204, 204)" stroke-width="1px"></line><line x1="30" y1="29.499999999999993" x2="25" y2="29.499999999999993" style="visibility: inherit;" fill="rgb(0, 0, 0)" stroke="rgb(204, 204, 204)" stroke-width="1px"></line><line x1="30" y1="14.750000000000007" x2="25" y2="14.750000000000007" style="visibility: inherit;" fill="rgb(0, 0, 0)" stroke="rgb(204, 204, 204)" stroke-width="1px"></line><line x1="30" y1="0" x2="25" y2="0" style="visibility: inherit;" fill="rgb(0, 0, 0)" stroke="rgb(204, 204, 204)" stroke-width="1px"></line></g><g transform="translate(20, 0)"><text x="0" y="177" dx="0em" dy="0.3em" style="text-anchor: end; visibility: hidden; font-family: Roboto, sans-serif; font-size: 12px; font-weight: 200;" fill="rgb(255, 255, 255)" stroke="none" stroke-width="1px">-1</text><text x="0" y="162.25" dx="0em" dy="0.3em" style="text-anchor: end; visibility: inherit; font-family: Roboto, sans-serif; font-size: 12px; font-weight: 200;" fill="rgb(255, 255, 255)" stroke="none" stroke-width="1px">0</text><text x="0" y="147.5" dx="0em" dy="0.3em" style="text-anchor: end; visibility: hidden; font-family: Roboto, sans-serif; font-size: 12px; font-weight: 200;" fill="rgb(255, 255, 255)" stroke="none" stroke-width="1px">1</text><text x="0" y="132.75" dx="0em" dy="0.3em" style="text-anchor: end; visibility: inherit; font-family: Roboto, sans-serif; font-size: 12px; font-weight: 200;" fill="rgb(255, 255, 255)" stroke="none" stroke-width="1px">2</text><text x="0" y="118.00000000000001" dx="0em" dy="0.3em" style="text-anchor: end; visibility: hidden; font-family: Roboto, sans-serif; font-size: 12px; font-weight: 200;" fill="rgb(255, 255, 255)" stroke="none" stroke-width="1px">3</text><text x="0" y="103.24999999999999" dx="0em" dy="0.3em" style="text-anchor: end; visibility: inherit; font-family: Roboto, sans-serif; font-size: 12px; font-weight: 200;" fill="rgb(255, 255, 255)" stroke="none" stroke-width="1px">4</text><text x="0" y="88.5" dx="0em" dy="0.3em" style="text-anchor: end; visibility: hidden; font-family: Roboto, sans-serif; font-size: 12px; font-weight: 200;" fill="rgb(255, 255, 255)" stroke="none" stroke-width="1px">5</text><text x="0" y="73.75" dx="0em" dy="0.3em" style="text-anchor: end; visibility: inherit; font-family: Roboto, sans-serif; font-size: 12px; font-weight: 200;" fill="rgb(255, 255, 255)" stroke="none" stroke-width="1px">6</text><text x="0" y="59.00000000000001" dx="0em" dy="0.3em" style="text-anchor: end; visibility: hidden; font-family: Roboto, sans-serif; font-size: 12px; font-weight: 200;" fill="rgb(255, 255, 255)" stroke="none" stroke-width="1px">7</text><text x="0" y="44.25" dx="0em" dy="0.3em" style="text-anchor: end; visibility: inherit; font-family: Roboto, sans-serif; font-size: 12px; font-weight: 200;" fill="rgb(255, 255, 255)" stroke="none" stroke-width="1px">8</text><text x="0" y="29.499999999999993" dx="0em" dy="0.3em" style="text-anchor: end; visibility: hidden; font-family: Roboto, sans-serif; font-size: 12px; font-weight: 200;" fill="rgb(255, 255, 255)" stroke="none" stroke-width="1px">9</text><text x="0" y="14.750000000000007" dx="0em" dy="0.3em" style="text-anchor: end; visibility: inherit; font-family: Roboto, sans-serif; font-size: 12px; font-weight: 200;" fill="rgb(255, 255, 255)" stroke="none" stroke-width="1px">10</text><text x="0" y="0" dx="0em" dy="0.3em" style="text-anchor: end; visibility: hidden; font-family: Roboto, sans-serif; font-size: 12px; font-weight: 200;" fill="rgb(255, 255, 255)" stroke="none" stroke-width="1px">11</text></g><line x1="30" y1="0" x2="30" y2="177" fill="rgb(0, 0, 0)" stroke="rgb(204, 204, 204)" stroke-width="1px"></line></g></g><g transform="translate(30, 0)" clip-path="url(#clip_0)"><clipPath id="clip_0"><rect width="300" height="177"></rect></clipPath><g><g><g><line x1="0" y1="0" x2="0" y2="177" fill="rgb(0, 0, 0)" stroke="rgb(189, 189, 189)" stroke-width="1px" opacity="0.25"></line><line x1="33.33333333333333" y1="0" x2="33.33333333333333" y2="177" fill="rgb(0, 0, 0)" stroke="rgb(189, 189, 189)" stroke-width="1px" opacity="0.25"></line><line x1="66.66666666666666" y1="0" x2="66.66666666666666" y2="177" fill="rgb(0, 0, 0)" stroke="rgb(189, 189, 189)" stroke-width="1px" opacity="0.25"></line><line x1="100" y1="0" x2="100" y2="177" fill="rgb(0, 0, 0)" stroke="rgb(189, 189, 189)" stroke-width="1px" opacity="0.25"></line><line x1="133.33333333333331" y1="0" x2="133.33333333333331" y2="177" fill="rgb(0, 0, 0)" stroke="rgb(189, 189, 189)" stroke-width="1px" opacity="0.25"></line><line x1="166.66666666666669" y1="0" x2="166.66666666666669" y2="177" fill="rgb(0, 0, 0)" stroke="rgb(189, 189, 189)" stroke-width="1px" opacity="0.25"></line><line x1="200" y1="0" x2="200" y2="177" fill="rgb(0, 0, 0)" stroke="rgb(189, 189, 189)" stroke-width="1px" opacity="0.25"></line><line x1="233.33333333333334" y1="0" x2="233.33333333333334" y2="177" fill="rgb(0, 0, 0)" stroke="rgb(189, 189, 189)" stroke-width="1px" opacity="0.25"></line><line x1="266.66666666666663" y1="0" x2="266.66666666666663" y2="177" fill="rgb(0, 0, 0)" stroke="rgb(189, 189, 189)" stroke-width="1px" opacity="0.25"></line><line x1="300" y1="0" x2="300" y2="177" fill="rgb(0, 0, 0)" stroke="rgb(189, 189, 189)" stroke-width="1px" opacity="0.25"></line></g><g><line x1="0" y1="177" x2="300" y2="177" fill="rgb(0, 0, 0)" stroke="rgb(189, 189, 189)" stroke-width="1px" opacity="0.25"></line><line x1="0" y1="162.25" x2="300" y2="162.25" fill="rgb(0, 0, 0)" stroke="rgb(189, 189, 189)" stroke-width="1px" opacity="0.25"></line><line x1="0" y1="147.5" x2="300" y2="147.5" fill="rgb(0, 0, 0)" stroke="rgb(189, 189, 189)" stroke-width="1px" opacity="0.25"></line><line x1="0" y1="132.75" x2="300" y2="132.75" fill="rgb(0, 0, 0)" stroke="rgb(189, 189, 189)" stroke-width="1px" opacity="0.25"></line><line x1="0" y1="118.00000000000001" x2="300" y2="118.00000000000001" fill="rgb(0, 0, 0)" stroke="rgb(189, 189, 189)" stroke-width="1px" opacity="0.25"></line><line x1="0" y1="103.24999999999999" x2="300" y2="103.24999999999999" fill="rgb(0, 0, 0)" stroke="rgb(189, 189, 189)" stroke-width="1px" opacity="0.25"></line><line x1="0" y1="88.5" x2="300" y2="88.5" fill="rgb(0, 0, 0)" stroke="rgb(189, 189, 189)" stroke-width="1px" opacity="0.25"></line><line x1="0" y1="73.75" x2="300" y2="73.75" fill="rgb(0, 0, 0)" stroke="rgb(189, 189, 189)" stroke-width="1px" opacity="0.25"></line><line x1="0" y1="59.00000000000001" x2="300" y2="59.00000000000001" fill="rgb(0, 0, 0)" stroke="rgb(189, 189, 189)" stroke-width="1px" opacity="0.25"></line><line x1="0" y1="44.25" x2="300" y2="44.25" fill="rgb(0, 0, 0)" stroke="rgb(189, 189, 189)" stroke-width="1px" opacity="0.25"></line><line x1="0" y1="29.499999999999993" x2="300" y2="29.499999999999993" fill="rgb(0, 0, 0)" stroke="rgb(189, 189, 189)" stroke-width="1px" opacity="0.25"></line><line x1="0" y1="14.750000000000007" x2="300" y2="14.750000000000007" fill="rgb(0, 0, 0)" stroke="rgb(189, 189, 189)" stroke-width="1px" opacity="0.25"></line><line x1="0" y1="0" x2="300" y2="0" fill="rgb(0, 0, 0)" stroke="rgb(189, 189, 189)" stroke-width="1px" opacity="0.25"></line></g></g></g><g><g><line x1="0" y1="162.25" x2="300" y2="162.25" fill="rgb(0, 0, 0)" stroke="rgb(153, 153, 153)" stroke-width="1.5px"></line></g></g><g><g><line x1="33.33333333333333" y1="0" x2="33.33333333333333" y2="177" fill="rgb(0, 0, 0)" stroke="rgb(153, 153, 153)" stroke-width="1.5px"></line></g></g><g><g><g><g><g><path stroke="rgb(0, 119, 187)" stroke-width="2px" d="M33.33333333333333,162.25L35,160.59062493406236L36.666666666666664,159.10433668445566L38.33333333333333,159.39761025484597L40,159.03540074112027L41.66666666666667,159.1464201485624L43.33333333333333,157.99563750495872L45,157.2061217473548L46.666666666666664,156.4429823687834L48.333333333333336,154.3873598014084L50,154.5239113420813L51.666666666666664,152.4177622051439L53.333333333333336,151.0979336197558L54.99999999999999,149.77572392074168L56.666666666666664,146.8580623148341L58.333333333333336,144.34112716503137L60,140.2349814626532L61.666666666666664,136.70963134958825L63.333333333333336,129.75635459866058L65,122.1035329599121L66.66666666666666,118.75104645768349L68.33333333333333,111.48853329697656L70,107.72109067568721L71.66666666666667,104.45763894193352L73.33333333333333,96.77656276550857L75,90.22092535124986L76.66666666666666,79.79754397985161L78.33333333333334,75.07752427710912L80,73.54351355091492L81.66666666666666,70.73510886008675L83.33333333333334,70.99706625106776L85,68.85323845468498L86.66666666666666,65.26594256390986L88.33333333333334,61.40256531512202L90,56.90153967436524L91.66666666666667,56.14792390937961L93.33333333333333,54.75175534978948L95,50.90505285798944L96.66666666666667,50.19003126306638L98.33333333333333,47.87302010514536L100,45.479812961436316L101.66666666666667,49.058888116184846L103.33333333333333,51.501331520013295L105,54.3237976746277L106.66666666666667,55.36827939262018L108.33333333333333,58.059967860807134L109.99999999999999,50.76597959087562L111.66666666666667,54.177587642068396L113.33333333333333,53.09755123482367L115.00000000000001,54.750531416108956L116.66666666666667,52.49731839952016L118.33333333333333,48.549393065304876L120,49.30763628931851L121.66666666666667,56.488581435997915L123.33333333333333,52.83214908666358L125,47.86528810159346L126.66666666666667,44.885171510552546L128.33333333333331,36.07610403166603L130,40.407661406197825L131.66666666666666,48.90659583091696L133.33333333333331,51.88195851135239L135,49.1831747692107L136.66666666666666,47.91790418632498L138.33333333333334,46.509743862197816L140,55.22284699252014L141.66666666666666,69.1827089832471L143.33333333333334,78.38462538994827L145,83.43377568410324L146.66666666666666,98.26326586059625L148.33333333333334,115.65695960075793L150,126.27017567605458L151.66666666666666,135.82410544783284L153.33333333333331,131.05446383136754L155.00000000000003,125.77367835508733L156.66666666666669,122.01520763198702L158.33333333333334,116.45612412905793L160,102.02867335209906L161.66666666666666,96.20420299845732L163.33333333333331,92.11952134894008L165,85.2437123592298L166.66666666666669,90.2632280907393L168.33333333333334,93.68793572910788L170,94.1497604246626L171.66666666666666,92.95185524199545L173.33333333333331,90.34511393293224L175,89.01706892242721L176.66666666666669,95.59524191612415L178.33333333333334,97.24114650007732L180,100.17568739364533L181.66666666666666,92.08341288632147L183.33333333333334,76.84404683152432L185,66.57942686104535L186.66666666666666,53.98965679182864L188.33333333333334,52.21779486283216L190,40.06267421689363L191.66666666666666,34.126604755203296L193.33333333333334,36.52396442859196L195,35.18937865715518L196.66666666666666,32.55962471855459L198.33333333333331,33.636776856737L200,32.15906453857221L201.66666666666669,32.157440523680435L203.33333333333334,23.837467015013953L205,26.574479758874094L206.66666666666666,32.16968785532445L208.33333333333331,24.021813838530388L210,17.422089653521073L211.66666666666669,26.855252216642675L213.33333333333334,28.444152230254144L215,30.931493588823866L216.66666666666666,34.842897503697145L218.33333333333331,30.699737601949757L219.99999999999997,26.4438405355656L221.66666666666669,27.135303421070827L223.33333333333334,34.63018284037748L225,53.52311082956217L226.66666666666666,49.69586379693166L228.33333333333331,50.70351805309185L230.00000000000003,48.4761104942544L231.66666666666669,47.670666859220496L233.33333333333334,40.75640259127081L235,40.20684200489674L236.66666666666666,32.97410520293805L238.33333333333331,36.481462671628535L240,37.169878503245684L241.66666666666669,40.11992698941384L243.33333333333334,29.971956193648296L245,17.57017551672609L246.66666666666666,15.203105084968499L248.33333333333331,21.511865301652488L250,20.93111715538723L251.66666666666669,29.668668042560935L253.33333333333334,29.955203301275095L255,33.84411950502653L256.66666666666663,31.752469227277384L258.33333333333337,35.040481761433576L260,36.954287931524455L261.6666666666667,35.270574334384634L263.3333333333333,19.451344825697912L265,19.5768077956873L266.66666666666663,14.696084677412355L268.33333333333337,14.7176508064474L270,16.500591609204125L271.6666666666667,25.299352939918244L273.3333333333333,26.979611763950935L275,18.07576525783346L276.6666666666667,20.344457129095836L278.33333333333337,19.640675627860322L280,20.988407852454724L281.6666666666667,10.292042685868566L283.3333333333333,24.34722516138686" style="fill: none;" fill="none"></path></g></g></g></g><g opacity="0.2"><g><g><g><path stroke="rgb(0, 119, 187)" stroke-width="2px" d="M33.33333333333333,162.25L35,159.59499989449978L36.666666666666664,157.67749996483326L38.33333333333333,159.74249997362494L40,158.5625L41.66666666666667,159.29999995604157L43.33333333333333,156.34999991208315L45,156.05500019341707L46.666666666666664,155.31750001758337L48.333333333333336,151.33499985933304L50,154.72750014066696L51.666666666666664,149.27000007033348L53.333333333333336,149.12250021100044L54.99999999999999,147.79499971866608L56.666666666666664,142.48499950766563L58.333333333333336,140.56749957799911L60,134.07750049233437L61.666666666666664,131.42250126600266L63.333333333333336,119.32749873399736L65,110.625L66.66666666666666,113.72250056266783L68.33333333333333,100.5950025320053L70,102.07000112533568L71.66666666666667,99.5625L73.33333333333333,85.25500309467316L75,80.38749718666077L76.66666666666666,64.16249859333038L78.33333333333334,67.99750196933746L80,71.2424988746643L81.66666666666666,66.52250337600708L83.33333333333334,71.39000225067139L85,65.63749718666077L86.66666666666666,59.88499915599824L88.33333333333334,55.60749971866608L90,50.15000140666961L91.66666666666667,55.01750028133392L93.33333333333333,52.65750253200531L95,45.13499915599823L96.66666666666667,49.117498874664314L98.33333333333333,44.39750337600709L100,41.89000225067139L101.66666666666667,54.42750084400177L103.33333333333333,55.16499662399291L105,58.55749690532684L106.66666666666667,56.93500196933747L108.33333333333333,62.09750056266784L109.99999999999999,39.824997186660774L111.66666666666667,59.294999718666084L113.33333333333333,51.47749662399293L115.00000000000001,57.23000168800355L116.66666666666667,49.117498874664314L118.33333333333333,42.62750506401063L120,50.445001125335686L121.66666666666667,67.25999915599823L123.33333333333333,47.347500562667854L125,40.41499662399293L126.66666666666667,40.41499662399293L128.33333333333331,22.86250281333924L130,46.90499746799469L131.66666666666666,61.6549974679947L133.33333333333331,56.34500253200532L135,45.13499915599823L136.66666666666666,46.01999831199646L138.33333333333334,44.39750337600709L140,68.29250168800354L141.66666666666666,90.12250196933745L143.33333333333334,92.18749999999999L145,91.00750112533568L146.66666666666666,120.5075011253357L148.33333333333334,141.74750021100044L150,142.18999978899956L151.66666666666666,150.15500010550022L153.33333333333331,123.9000014066696L155.00000000000003,117.85250014066698L156.66666666666669,116.37750154733659L158.33333333333334,108.11749887466432L160,80.38749718666077L161.66666666666666,87.46749746799469L163.33333333333331,85.9924988746643L165,74.9299988746643L166.66666666666669,97.79250168800354L168.33333333333334,98.82499718666078L170,94.84249746799468L171.66666666666666,91.15499746799469L173.33333333333331,86.43500196933746L175,87.02500140666962L176.66666666666669,105.46250140666963L178.33333333333334,99.71000337600707L180,104.57749873399733L181.66666666666666,79.9450011253357L183.33333333333334,53.984997749328606L185,51.18249690532685L186.66666666666666,35.10500168800355L188.33333333333334,49.560001969337456L190,21.829993247985847L191.66666666666666,25.222500562667854L193.33333333333334,40.12000393867493L195,33.1875L196.66666666666666,28.614993810653687L198.33333333333331,35.25250506401061L200,29.94249606132508L201.66666666666669,32.15500450134278L203.33333333333334,11.357506752014153L205,30.6799988746643L206.66666666666666,40.56249999999999L208.33333333333331,11.80000281333924L210,7.52250337600708L211.66666666666669,41.00499606132508L213.33333333333334,30.827502250671387L215,34.66250562667846L216.66666666666666,40.71000337600708L218.33333333333331,24.484997749328613L219.99999999999997,20.059994935989387L221.66666666666669,28.17249774932862L223.33333333333334,45.87250196933747L225,81.86250281333923L226.66666666666666,43.95499324798585L228.33333333333331,52.214999437332146L230.00000000000003,45.13499915599823L231.66666666666669,46.462501406669624L233.33333333333334,30.38500618934632L235,39.382501125335686L236.66666666666666,22.125L238.33333333333331,41.7424988746643L240,38.20250225067138L241.66666666666669,44.54499971866608L243.33333333333334,14.750000000000007L245,-1.0324954986572397L246.66666666666666,11.652499437332153L248.33333333333331,30.975005626678474L250,20.059994935989387L251.66666666666669,42.77499437332154L253.33333333333334,30.38500618934632L255,39.67749381065369L256.66666666666663,28.614993810653687L258.33333333333337,39.97250056266784L260,39.824997186660774L261.6666666666667,32.745003938674934L263.3333333333333,-4.27749943733214L265,19.765002250671387L266.66666666666663,7.374999999999994L268.33333333333337,14.750000000000007L270,19.175002813339233L271.6666666666667,38.49749493598938L273.3333333333333,29.499999999999993L275,4.719995498657227L276.6666666666667,23.747494935989373L278.33333333333337,18.58500337600708L280,23.010006189346306L281.6666666666667,-5.75250506401062L283.3333333333333,45.42999887466431" style="fill: none;" fill="none"></path></g></g></g></g></g></g><g transform="translate(30, 177)" clip-path="url(#clip_1)"><clipPath id="clip_1"><rect width="300" height="23"></rect></clipPath><g><g><line x1="0" y1="0" x2="0" y2="5" style="visibility: inherit;" fill="rgb(0, 0, 0)" stroke="rgb(204, 204, 204)" stroke-width="1px"></line><line x1="33.33333333333333" y1="0" x2="33.33333333333333" y2="5" style="visibility: inherit;" fill="rgb(0, 0, 0)" stroke="rgb(204, 204, 204)" stroke-width="1px"></line><line x1="66.66666666666666" y1="0" x2="66.66666666666666" y2="5" style="visibility: inherit;" fill="rgb(0, 0, 0)" stroke="rgb(204, 204, 204)" stroke-width="1px"></line><line x1="100" y1="0" x2="100" y2="5" style="visibility: inherit;" fill="rgb(0, 0, 0)" stroke="rgb(204, 204, 204)" stroke-width="1px"></line><line x1="133.33333333333331" y1="0" x2="133.33333333333331" y2="5" style="visibility: inherit;" fill="rgb(0, 0, 0)" stroke="rgb(204, 204, 204)" stroke-width="1px"></line><line x1="166.66666666666669" y1="0" x2="166.66666666666669" y2="5" style="visibility: inherit;" fill="rgb(0, 0, 0)" stroke="rgb(204, 204, 204)" stroke-width="1px"></line><line x1="200" y1="0" x2="200" y2="5" style="visibility: inherit;" fill="rgb(0, 0, 0)" stroke="rgb(204, 204, 204)" stroke-width="1px"></line><line x1="233.33333333333334" y1="0" x2="233.33333333333334" y2="5" style="visibility: inherit;" fill="rgb(0, 0, 0)" stroke="rgb(204, 204, 204)" stroke-width="1px"></line><line x1="266.66666666666663" y1="0" x2="266.66666666666663" y2="5" style="visibility: inherit;" fill="rgb(0, 0, 0)" stroke="rgb(204, 204, 204)" stroke-width="1px"></line><line x1="300" y1="0" x2="300" y2="5" style="visibility: inherit;" fill="rgb(0, 0, 0)" stroke="rgb(204, 204, 204)" stroke-width="1px"></line></g><g transform="translate(0, 8)"><text x="0" y="0" dx="0em" dy="0.95em" style="text-anchor: middle; visibility: hidden; font-family: Roboto, sans-serif; font-size: 12px; font-weight: 200;" fill="rgb(255, 255, 255)" stroke="none" stroke-width="1px">-200k</text><text x="33.33333333333333" y="0" dx="0em" dy="0.95em" style="text-anchor: middle; visibility: inherit; font-family: Roboto, sans-serif; font-size: 12px; font-weight: 200;" fill="rgb(255, 255, 255)" stroke="none" stroke-width="1px">0</text><text x="66.66666666666666" y="0" dx="0em" dy="0.95em" style="text-anchor: middle; visibility: inherit; font-family: Roboto, sans-serif; font-size: 12px; font-weight: 200;" fill="rgb(255, 255, 255)" stroke="none" stroke-width="1px">200k</text><text x="100" y="0" dx="0em" dy="0.95em" style="text-anchor: middle; visibility: inherit; font-family: Roboto, sans-serif; font-size: 12px; font-weight: 200;" fill="rgb(255, 255, 255)" stroke="none" stroke-width="1px">400k</text><text x="133.33333333333331" y="0" dx="0em" dy="0.95em" style="text-anchor: middle; visibility: inherit; font-family: Roboto, sans-serif; font-size: 12px; font-weight: 200;" fill="rgb(255, 255, 255)" stroke="none" stroke-width="1px">600k</text><text x="166.66666666666669" y="0" dx="0em" dy="0.95em" style="text-anchor: middle; visibility: inherit; font-family: Roboto, sans-serif; font-size: 12px; font-weight: 200;" fill="rgb(255, 255, 255)" stroke="none" stroke-width="1px">800k</text><text x="200" y="0" dx="0em" dy="0.95em" style="text-anchor: middle; visibility: inherit; font-family: Roboto, sans-serif; font-size: 12px; font-weight: 200;" fill="rgb(255, 255, 255)" stroke="none" stroke-width="1px">1M</text><text x="233.33333333333334" y="0" dx="0em" dy="0.95em" style="text-anchor: middle; visibility: inherit; font-family: Roboto, sans-serif; font-size: 12px; font-weight: 200;" fill="rgb(255, 255, 255)" stroke="none" stroke-width="1px">1.2M</text><text x="266.66666666666663" y="0" dx="0em" dy="0.95em" style="text-anchor: middle; visibility: inherit; font-family: Roboto, sans-serif; font-size: 12px; font-weight: 200;" fill="rgb(255, 255, 255)" stroke="none" stroke-width="1px">1.4M</text><text x="300" y="0" dx="0em" dy="0.95em" style="text-anchor: middle; visibility: hidden; font-family: Roboto, sans-serif; font-size: 12px; font-weight: 200;" fill="rgb(255, 255, 255)" stroke="none" stroke-width="1px">1.6M</text></g><line x1="0" y1="0" x2="300" y2="0" fill="rgb(0, 0, 0)" stroke="rgb(204, 204, 204)" stroke-width="1px"></line></g></g></g></g></svg>